<svg width="24" height="24" viewBox="0 0 24 24" fill="none" xmlns="http://www.w3.org/2000/svg">
<path fill-rule="evenodd" clip-rule="evenodd" d="M16.405 19.8292C16.5181 19.9163 16.652 19.9724 16.7935 19.9921C16.935 20.0118 17.0792 19.9944 17.2119 19.9416C17.347 19.8849 17.4659 19.7958 17.558 19.6822C17.6501 19.5686 17.7126 19.434 17.7398 19.2905C18.3737 16.1253 19.9107 8.11385 20.4872 5.23539C20.5089 5.1294 20.5029 5.0196 20.4697 4.91659C20.4365 4.81359 20.3772 4.72084 20.2976 4.6473C20.2208 4.57644 20.1255 4.52865 20.0226 4.50945C19.9198 4.49026 19.8136 4.50042 19.7162 4.53879C16.6597 5.74113 7.24417 9.4964 3.39629 11.0098C3.27453 11.0603 3.17128 11.1468 3.10051 11.2577C3.02974 11.3686 2.99487 11.4985 3.00061 11.6298C3.00299 11.7607 3.0458 11.8877 3.12322 11.9934C3.20064 12.0992 3.30889 12.1786 3.43323 12.2208C5.15885 12.7711 7.42402 13.5346 7.42402 13.5346C7.42402 13.5346 8.4837 16.9333 9.03492 18.6617C9.10395 18.8788 9.26436 19.0493 9.47435 19.1074C9.57836 19.1359 9.68814 19.1361 9.79227 19.108C9.89639 19.0799 9.99105 19.0245 10.0664 18.9476L12.3238 16.6824C12.3238 16.6824 14.9273 18.7121 16.405 19.8311V19.8292ZM8.37773 13.1044L9.6017 17.3964L9.87391 14.6788L17.2994 7.55773C17.3373 7.51998 17.3605 7.47006 17.365 7.41684C17.3694 7.36363 17.3548 7.31056 17.3237 7.26708C17.2939 7.22442 17.2483 7.19521 17.197 7.18578C17.1457 7.17635 17.0927 7.18746 17.0496 7.2167L8.37773 13.1044Z" fill="white"/>
</svg>
