<svg xmlns="http://www.w3.org/2000/svg" width="24" height="24" viewBox="0 0 24 24" fill="none">
<path fill-rule="evenodd" clip-rule="evenodd" d="M13.8793 21.4287C12.4849 21.4287 11.1802 21.1824 9.96507 20.6897C8.7699 20.1971 7.71415 19.522 6.79785 18.6644C5.88155 17.7886 5.16444 16.776 4.64653 15.6265C4.47062 15.2204 4.32579 14.8053 4.21202 14.3811H3.11878C2.57977 14.3811 2.14282 13.9547 2.14282 13.4287C2.14282 12.9027 2.57977 12.4763 3.11878 12.4763H3.91297C3.90402 12.3052 3.89954 12.1328 3.89954 11.9591C3.89954 11.6836 3.91112 11.4116 3.93428 11.143H3.11878C2.57977 11.143 2.14282 10.7166 2.14282 10.1906C2.14282 9.6646 2.57977 9.2382 3.11878 9.2382H4.31027C4.40572 8.93604 4.51781 8.63877 4.64653 8.34636C5.16444 7.21512 5.87159 6.22071 6.76797 5.36316C7.68427 4.48735 8.74998 3.80313 9.96507 3.31049C11.1802 2.81785 12.4849 2.57153 13.8793 2.57153C14.935 2.57153 15.9609 2.72662 16.9569 3.0368C17.9728 3.34698 18.8891 3.80313 19.7058 4.40525C20.2936 4.81544 20.8076 5.30219 21.2479 5.86548C21.558 6.26226 21.3971 6.82055 20.9488 7.06072C20.5216 7.28961 19.991 7.14278 19.6847 6.77286C19.3443 6.36184 18.9529 6.00142 18.5106 5.69158C17.8333 5.21719 17.0864 4.86139 16.2696 4.6242C15.4729 4.36875 14.6562 4.24103 13.8195 4.24103C12.704 4.24103 11.6582 4.44174 10.6822 4.84315C9.72604 5.24456 8.88941 5.80106 8.17231 6.51265C7.4552 7.22424 6.88749 8.05443 6.46918 9.00321C6.43583 9.0811 6.40388 9.15942 6.37333 9.2382H20.8812C21.4202 9.2382 21.8571 9.6646 21.8571 10.1906C21.8571 10.7166 21.4202 11.143 20.8812 11.143H5.91517C5.88612 11.4195 5.87159 11.7006 5.87159 11.9864C5.87159 12.1512 5.87625 12.3145 5.88559 12.4763H20.8812C21.4202 12.4763 21.8571 12.9027 21.8571 13.4287V17.2479C21.8571 17.7579 21.6908 18.2617 21.3217 18.6227C20.9678 18.9688 20.5487 19.3111 20.0643 19.6497C19.3074 20.1606 18.401 20.5894 17.3453 20.936C16.3095 21.2645 15.1541 21.4287 13.8793 21.4287ZM6.46918 15.0244C6.38046 14.8131 6.30163 14.5987 6.23267 14.3811H19.9747V16.5945C19.9747 17.1191 19.8 17.6415 19.384 17.9738C19.1501 18.1607 18.8789 18.3453 18.5704 18.5276C17.9728 18.8925 17.2656 19.1936 16.4489 19.4307C15.6521 19.6497 14.7956 19.7592 13.8793 19.7592C12.7439 19.7592 11.6881 19.5585 10.7121 19.1571C9.736 18.7556 8.88941 18.1992 8.17231 17.4876C7.4552 16.776 6.88749 15.9549 6.46918 15.0244Z" fill="url(#paint0_linear_2001_430)"/>
<defs>
<linearGradient id="paint0_linear_2001_430" x1="17.9533" y1="6.66677" x2="10.2226" y2="18.8396" gradientUnits="userSpaceOnUse">
<stop stop-color="#10F9F5"/>
<stop offset="1" stop-color="#FF007E"/>
</linearGradient>
</defs>
</svg>