<svg width="148" height="18" viewBox="0 0 148 18" fill="none" xmlns="http://www.w3.org/2000/svg">
<path d="M141.248 8.86959C140.556 8.86959 139.984 9.0277 139.534 9.3439C139.084 9.6443 138.755 10.0475 138.548 10.5534C138.34 11.0435 138.236 11.5969 138.236 12.2135V17.668H134.548V11.8103C134.548 10.672 134.791 9.63639 135.276 8.70359C135.778 7.75497 136.522 7.00398 137.509 6.45062C138.496 5.88145 139.742 5.59687 141.248 5.59687C142.754 5.59687 144.001 5.88145 144.988 6.45062C145.992 7.00398 146.745 7.74706 147.247 8.67987C147.749 9.61268 148 10.6562 148 11.8103V17.668H144.312V12.2135C144.312 11.6127 144.2 11.0593 143.975 10.5534C143.75 10.0475 143.412 9.6443 142.962 9.3439C142.529 9.0277 141.958 8.86959 141.248 8.86959Z" fill="white"/>
<path d="M127.257 5.92885H130.944V17.668H127.257V5.92885ZM129.101 4.17391C128.685 4.17391 128.296 4.08696 127.932 3.91304C127.586 3.72332 127.309 3.47036 127.101 3.15415C126.911 2.82213 126.815 2.4664 126.815 2.08696C126.815 1.70751 126.911 1.35968 127.101 1.04348C127.309 0.727273 127.586 0.474309 127.932 0.284585C128.296 0.0948617 128.685 0 129.101 0C129.516 0 129.897 0.0948617 130.243 0.284585C130.59 0.474309 130.858 0.727273 131.048 1.04348C131.256 1.35968 131.36 1.70751 131.36 2.08696C131.36 2.4664 131.256 2.82213 131.048 3.15415C130.858 3.47036 130.59 3.72332 130.243 3.91304C129.897 4.08696 129.516 4.17391 129.101 4.17391Z" fill="white"/>
<path d="M116.068 17.9763C114.822 17.9763 113.723 17.6996 112.77 17.1462C111.818 16.5771 111.065 15.8261 110.511 14.8933C109.975 13.9447 109.706 12.9012 109.706 11.7628C109.706 10.6403 110.009 9.61265 110.615 8.67984C111.238 7.73123 112.069 6.98024 113.108 6.42688C114.164 5.85771 115.35 5.57312 116.666 5.57312C117.999 5.57312 119.193 5.8498 120.249 6.40316C121.305 6.94071 122.136 7.67589 122.742 8.6087C123.348 9.52569 123.651 10.5771 123.651 11.7628V17.668H120.145V13.4229L121.262 13.1383C121.262 14.0553 121.046 14.8854 120.613 15.6285C120.18 16.3557 119.583 16.9328 118.821 17.3597C118.059 17.7707 117.142 17.9763 116.068 17.9763ZM116.666 14.8221C117.306 14.8221 117.869 14.6877 118.354 14.419C118.856 14.1344 119.245 13.7628 119.522 13.3043C119.817 12.8458 119.964 12.3399 119.964 11.7866C119.964 11.2332 119.817 10.7273 119.522 10.2688C119.245 9.81028 118.856 9.44664 118.354 9.17787C117.869 8.89328 117.306 8.75099 116.666 8.75099C116.042 8.75099 115.48 8.89328 114.978 9.17787C114.493 9.44664 114.104 9.81028 113.809 10.2688C113.532 10.7273 113.394 11.2332 113.394 11.7866C113.394 12.3399 113.532 12.8458 113.809 13.3043C114.104 13.7628 114.493 14.1344 114.978 14.419C115.48 14.6877 116.042 14.8221 116.666 14.8221Z" fill="white"/>
<path d="M97.6217 17.668H93.9342V0.521764H97.6217V9.27275H95.9078C95.9598 8.62453 96.2281 8.02374 96.7128 7.47038C97.1976 6.90121 97.8381 6.45062 98.6345 6.1186C99.4309 5.77077 100.305 5.59686 101.257 5.59686C102.573 5.59686 103.672 5.84192 104.555 6.33204C105.438 6.80635 106.105 7.48619 106.555 8.37156C107.005 9.25694 107.23 10.3241 107.23 11.5731V17.668L103.543 17.6443V11.9052C103.543 11.3518 103.43 10.838 103.205 10.3637C102.997 9.88935 102.677 9.5099 102.244 9.22532C101.829 8.92492 101.309 8.77472 100.686 8.77472C100.08 8.77472 99.5434 8.90911 99.076 9.17789C98.6085 9.44666 98.245 9.82611 97.9853 10.3162C97.7429 10.7905 97.6217 11.336 97.6217 11.9526V17.668Z" fill="white"/>
<path d="M84.2545 18C82.9734 18 81.7875 17.7866 80.6968 17.3597C79.6061 16.9328 78.6453 16.3399 77.8143 15.581C76.9833 14.8221 76.3341 13.9447 75.8667 12.9486C75.4166 11.9368 75.1915 10.8538 75.1915 9.69961C75.1915 8.52965 75.4166 7.44665 75.8667 6.4506C76.3341 5.45455 76.9833 4.57708 77.8143 3.81819C78.6453 3.05929 79.6061 2.46641 80.6968 2.03953C81.7875 1.61266 82.9734 1.39922 84.2545 1.39922C85.2586 1.39922 86.2367 1.55732 87.1889 1.87353C88.1411 2.18973 88.9894 2.64032 89.7338 3.2253C90.4955 3.81028 91.0841 4.52175 91.4996 5.35969L88.4094 6.94862C87.9766 6.25297 87.4139 5.70752 86.7215 5.31226C86.029 4.90119 85.1547 4.69566 84.0986 4.69566C83.3715 4.69566 82.6964 4.82214 82.0731 5.07511C81.4672 5.31226 80.9392 5.66008 80.4891 6.11858C80.0389 6.56127 79.6927 7.09091 79.4503 7.70751C79.2079 8.3083 79.0868 8.97234 79.0868 9.69961C79.0868 10.4111 79.2079 11.0751 79.4503 11.6917C79.6927 12.3083 80.0303 12.8459 80.4631 13.3043C80.9132 13.747 81.4499 14.0949 82.0731 14.3478C82.6964 14.585 83.3715 14.7036 84.0986 14.7036C85.1547 14.7036 86.029 14.498 86.7215 14.087C87.4313 13.6759 87.9939 13.1304 88.4094 12.4506L91.4996 14.0395C91.0841 14.8775 90.4955 15.5889 89.7338 16.1739C88.9894 16.7589 88.1411 17.2095 87.1889 17.5257C86.2367 17.8419 85.2586 18 84.2545 18Z" fill="white"/>
<path d="M66.3525 14.7273C66.9931 14.7273 67.5211 14.5771 67.9366 14.2767C68.3694 13.9605 68.6897 13.5494 68.8974 13.0435C69.1052 12.5217 69.2091 11.9605 69.2091 11.3597V5.92885H72.8966V11.7628C72.8966 12.917 72.6455 13.9684 72.1435 14.917C71.6587 15.8498 70.9316 16.5929 69.9621 17.1462C68.9927 17.6996 67.7894 17.9763 66.3525 17.9763C64.9329 17.9763 63.7384 17.6996 62.7689 17.1462C61.7994 16.5929 61.0637 15.8419 60.5616 14.8933C60.0769 13.9447 59.8345 12.9012 59.8345 11.7628V5.92885H63.522V11.3834C63.522 11.9684 63.6259 12.5217 63.8336 13.0435C64.0414 13.5494 64.353 13.9605 64.7685 14.2767C65.2013 14.5771 65.7293 14.7273 66.3525 14.7273Z" fill="white"/>
<path d="M50.6073 5.50199C52.0096 5.50199 53.1696 5.77867 54.0871 6.33203C55.022 6.88539 55.7231 7.61266 56.1905 8.51385C56.6753 9.41503 56.9176 10.419 56.9176 11.5257V17.668H53.2301V12.0949C53.2301 11.4783 53.1263 10.9249 52.9185 10.4348C52.7281 9.92887 52.4165 9.52571 51.9837 9.22531C51.5682 8.92492 51.0228 8.77472 50.3477 8.77472C49.6725 8.77472 49.1271 8.92492 48.7117 9.22531C48.2962 9.5099 47.9845 9.90515 47.7768 10.4111C47.5864 10.9012 47.4911 11.4467 47.4911 12.0474V17.668H43.8036V12.0712C43.8036 11.4546 43.7084 10.9012 43.518 10.4111C43.3276 9.90515 43.0159 9.5099 42.5831 9.22531C42.1503 8.92492 41.605 8.77472 40.9471 8.77472C40.2546 8.77472 39.7006 8.92492 39.2851 9.22531C38.8697 9.52571 38.5667 9.92887 38.3763 10.4348C38.1858 10.9249 38.0906 11.4704 38.0906 12.0712V17.668H34.4031V11.5257C34.4031 10.4348 34.6368 9.43875 35.1042 8.53757C35.5717 7.62057 36.2642 6.88539 37.1817 6.33203C38.1166 5.77867 39.2765 5.50199 40.6615 5.50199C41.7695 5.50199 42.7216 5.69172 43.518 6.07116C44.3317 6.4348 44.9549 6.94863 45.3877 7.61266C45.8378 8.26088 46.0715 9.01978 46.0889 9.88934H45.2579C45.2752 9.01978 45.5175 8.26088 45.985 7.61266C46.4524 6.94863 47.0843 6.4348 47.8807 6.07116C48.677 5.69172 49.5859 5.50199 50.6073 5.50199Z" fill="white"/>
<path d="M25.6 17.9763C24.267 17.9763 23.0638 17.7154 21.9904 17.1936C20.9344 16.6561 20.1034 15.9209 19.4975 14.9881C18.8915 14.0395 18.5886 12.9407 18.5886 11.6917C18.5886 10.5691 18.8656 9.54148 19.4196 8.60867C19.9909 7.66006 20.7786 6.90907 21.7827 6.35571C22.7868 5.78654 23.9467 5.50195 25.2624 5.50195C26.6301 5.50195 27.79 5.77863 28.7422 6.33199C29.6944 6.86954 30.4215 7.58891 30.9235 8.49009C31.4429 9.39128 31.7026 10.3794 31.7026 11.4545V12.4506H21.523L22.0943 11.6205C22.0597 12.2846 22.1809 12.8774 22.4579 13.3992C22.7522 13.9209 23.159 14.332 23.6784 14.6324C24.2151 14.917 24.847 15.0593 25.5741 15.0593C26.2666 15.0593 26.8898 14.9091 27.4438 14.6087C28.0151 14.3083 28.4479 13.8893 28.7422 13.3518L31.5728 14.6561C31.0188 15.7154 30.2224 16.5375 29.1837 17.1225C28.1622 17.6917 26.9677 17.9763 25.6 17.9763ZM22.3021 10.577H28.0411C27.9891 10.166 27.8333 9.80235 27.5736 9.48614C27.3313 9.15413 27.011 8.90116 26.6128 8.72725C26.2146 8.53753 25.7558 8.44266 25.2365 8.44266C24.6998 8.44266 24.2237 8.53753 23.8082 8.72725C23.41 8.91697 23.0811 9.17784 22.8214 9.50986C22.5791 9.82606 22.4059 10.1818 22.3021 10.577ZM29.9627 0.735157V3.29642H20.5622V0.735157H29.9627Z" fill="white"/>
<path d="M9.06295 18C7.78184 18 6.5873 17.7866 5.47932 17.3597C4.38865 16.9328 3.42782 16.3399 2.59683 15.581C1.78316 14.8221 1.14261 13.9447 0.675177 12.9486C0.225059 11.9368 0 10.8538 0 9.6996C0 8.54545 0.225059 7.47036 0.675177 6.47431C1.12529 5.46245 1.75719 4.58498 2.57086 3.8419C3.40185 3.08301 4.37134 2.49012 5.47932 2.06324C6.5873 1.63637 7.78184 1.42293 9.06295 1.42293C10.0497 1.42293 11.0192 1.57313 11.9714 1.87352C12.9236 2.17392 13.7719 2.6166 14.5163 3.20158C15.278 3.77075 15.8753 4.49012 16.3081 5.35968L13.2179 6.94862C12.9236 6.47431 12.5687 6.07115 12.1532 5.73913C11.755 5.39131 11.2876 5.13044 10.7509 4.95652C10.2142 4.7668 9.59962 4.67194 8.90714 4.67194C8.16271 4.67194 7.48753 4.80633 6.88161 5.0751C6.27568 5.32806 5.74766 5.6838 5.29754 6.14229C4.84742 6.58498 4.50118 7.11463 4.25881 7.73123C4.01643 8.34783 3.89525 9.01976 3.89525 9.74704C3.89525 10.4901 4.01643 11.1779 4.25881 11.8103C4.51849 12.4269 4.87339 12.9644 5.32351 13.4229C5.77362 13.8814 6.31896 14.2372 6.95951 14.4901C7.60006 14.7273 8.30121 14.8458 9.06295 14.8458C9.63425 14.8458 10.1536 14.7984 10.621 14.7036C11.0885 14.6087 11.504 14.4822 11.8675 14.3241C12.2484 14.1502 12.5687 13.9368 12.8284 13.6838L12.8024 10.1502H16.4899V14.8458C16.0744 15.4308 15.5031 15.9605 14.776 16.4348C14.0489 16.9091 13.2006 17.2885 12.2311 17.5731C11.2616 17.8577 10.2056 18 9.06295 18Z" fill="white"/>
</svg>
