<svg width="187" height="26" viewBox="0 0 187 26" fill="none" xmlns="http://www.w3.org/2000/svg">
<path d="M180.248 12.8696C179.556 12.8696 178.984 13.0277 178.534 13.3439C178.084 13.6443 177.755 14.0475 177.548 14.5534C177.34 15.0435 177.236 15.5969 177.236 16.2135V21.668H173.548V15.8103C173.548 14.672 173.791 13.6364 174.276 12.7036C174.778 11.755 175.522 11.004 176.509 10.4506C177.496 9.88145 178.742 9.59687 180.248 9.59687C181.754 9.59687 183.001 9.88145 183.988 10.4506C184.992 11.004 185.745 11.7471 186.247 12.6799C186.749 13.6127 187 14.6562 187 15.8103V21.668H183.312V16.2135C183.312 15.6127 183.2 15.0593 182.975 14.5534C182.75 14.0475 182.412 13.6443 181.962 13.3439C181.529 13.0277 180.958 12.8696 180.248 12.8696Z" fill="white"/>
<path d="M166.257 9.92885H169.944V21.668H166.257V9.92885ZM168.101 8.17391C167.685 8.17391 167.296 8.08696 166.932 7.91304C166.586 7.72332 166.309 7.47036 166.101 7.15415C165.911 6.82213 165.815 6.4664 165.815 6.08696C165.815 5.70751 165.911 5.35968 166.101 5.04348C166.309 4.72727 166.586 4.47431 166.932 4.28459C167.296 4.09486 167.685 4 168.101 4C168.516 4 168.897 4.09486 169.243 4.28459C169.59 4.47431 169.858 4.72727 170.048 5.04348C170.256 5.35968 170.36 5.70751 170.36 6.08696C170.36 6.4664 170.256 6.82213 170.048 7.15415C169.858 7.47036 169.59 7.72332 169.243 7.91304C168.897 8.08696 168.516 8.17391 168.101 8.17391Z" fill="white"/>
<path d="M155.068 21.9763C153.822 21.9763 152.723 21.6996 151.77 21.1462C150.818 20.5771 150.065 19.8261 149.511 18.8933C148.975 17.9447 148.706 16.9012 148.706 15.7628C148.706 14.6403 149.009 13.6126 149.615 12.6798C150.238 11.7312 151.069 10.9802 152.108 10.4269C153.164 9.85771 154.35 9.57312 155.666 9.57312C156.999 9.57312 158.193 9.8498 159.249 10.4032C160.305 10.9407 161.136 11.6759 161.742 12.6087C162.348 13.5257 162.651 14.5771 162.651 15.7628V21.668H159.145V17.4229L160.262 17.1383C160.262 18.0553 160.046 18.8854 159.613 19.6285C159.18 20.3557 158.583 20.9328 157.821 21.3597C157.059 21.7707 156.142 21.9763 155.068 21.9763ZM155.666 18.8221C156.306 18.8221 156.869 18.6877 157.354 18.419C157.856 18.1344 158.245 17.7628 158.522 17.3043C158.817 16.8458 158.964 16.3399 158.964 15.7866C158.964 15.2332 158.817 14.7273 158.522 14.2688C158.245 13.8103 157.856 13.4466 157.354 13.1779C156.869 12.8933 156.306 12.751 155.666 12.751C155.042 12.751 154.48 12.8933 153.978 13.1779C153.493 13.4466 153.104 13.8103 152.809 14.2688C152.532 14.7273 152.394 15.2332 152.394 15.7866C152.394 16.3399 152.532 16.8458 152.809 17.3043C153.104 17.7628 153.493 18.1344 153.978 18.419C154.48 18.6877 155.042 18.8221 155.666 18.8221Z" fill="white"/>
<path d="M136.622 21.668H132.934V4.52176H136.622V13.2727H134.908C134.96 12.6245 135.228 12.0237 135.713 11.4704C136.198 10.9012 136.838 10.4506 137.635 10.1186C138.431 9.77077 139.305 9.59686 140.257 9.59686C141.573 9.59686 142.672 9.84192 143.555 10.332C144.438 10.8063 145.105 11.4862 145.555 12.3716C146.005 13.2569 146.23 14.3241 146.23 15.5731V21.668L142.543 21.6443V15.9052C142.543 15.3518 142.43 14.838 142.205 14.3637C141.997 13.8893 141.677 13.5099 141.244 13.2253C140.829 12.9249 140.309 12.7747 139.686 12.7747C139.08 12.7747 138.543 12.9091 138.076 13.1779C137.609 13.4467 137.245 13.8261 136.985 14.3162C136.743 14.7905 136.622 15.336 136.622 15.9526V21.668Z" fill="white"/>
<path d="M123.254 22C121.973 22 120.787 21.7866 119.697 21.3597C118.606 20.9328 117.645 20.3399 116.814 19.581C115.983 18.8221 115.334 17.9447 114.867 16.9486C114.417 15.9368 114.192 14.8538 114.192 13.6996C114.192 12.5296 114.417 11.4466 114.867 10.4506C115.334 9.45455 115.983 8.57708 116.814 7.81819C117.645 7.05929 118.606 6.46641 119.697 6.03953C120.787 5.61266 121.973 5.39922 123.254 5.39922C124.259 5.39922 125.237 5.55732 126.189 5.87353C127.141 6.18973 127.989 6.64032 128.734 7.2253C129.496 7.81028 130.084 8.52175 130.5 9.35969L127.409 10.9486C126.977 10.253 126.414 9.70752 125.721 9.31226C125.029 8.90119 124.155 8.69566 123.099 8.69566C122.372 8.69566 121.696 8.82214 121.073 9.07511C120.467 9.31226 119.939 9.66008 119.489 10.1186C119.039 10.5613 118.693 11.0909 118.45 11.7075C118.208 12.3083 118.087 12.9723 118.087 13.6996C118.087 14.4111 118.208 15.0751 118.45 15.6917C118.693 16.3083 119.03 16.8459 119.463 17.3043C119.913 17.747 120.45 18.0949 121.073 18.3478C121.696 18.585 122.372 18.7036 123.099 18.7036C124.155 18.7036 125.029 18.498 125.721 18.087C126.431 17.6759 126.994 17.1304 127.409 16.4506L130.5 18.0395C130.084 18.8775 129.496 19.5889 128.734 20.1739C127.989 20.7589 127.141 21.2095 126.189 21.5257C125.237 21.8419 124.259 22 123.254 22Z" fill="white"/>
<path d="M105.353 18.7273C105.993 18.7273 106.521 18.5771 106.937 18.2767C107.369 17.9605 107.69 17.5494 107.897 17.0435C108.105 16.5217 108.209 15.9605 108.209 15.3597V9.92885H111.897V15.7628C111.897 16.917 111.646 17.9684 111.143 18.917C110.659 19.8498 109.932 20.5929 108.962 21.1462C107.993 21.6996 106.789 21.9763 105.353 21.9763C103.933 21.9763 102.738 21.6996 101.769 21.1462C100.799 20.5929 100.064 19.8419 99.5616 18.8933C99.0769 17.9447 98.8345 16.9012 98.8345 15.7628V9.92885H102.522V15.3834C102.522 15.9684 102.626 16.5217 102.834 17.0435C103.041 17.5494 103.353 17.9605 103.768 18.2767C104.201 18.5771 104.729 18.7273 105.353 18.7273Z" fill="white"/>
<path d="M89.6073 9.50199C91.0096 9.50199 92.1696 9.77867 93.0871 10.332C94.022 10.8854 94.7231 11.6127 95.1905 12.5138C95.6753 13.415 95.9176 14.419 95.9176 15.5257V21.668H92.2301V16.0949C92.2301 15.4783 92.1263 14.9249 91.9185 14.4348C91.7281 13.9289 91.4165 13.5257 90.9837 13.2253C90.5682 12.9249 90.0228 12.7747 89.3477 12.7747C88.6725 12.7747 88.1271 12.9249 87.7117 13.2253C87.2962 13.5099 86.9845 13.9052 86.7768 14.4111C86.5864 14.9012 86.4911 15.4467 86.4911 16.0474V21.668H82.8036V16.0712C82.8036 15.4546 82.7084 14.9012 82.518 14.4111C82.3276 13.9052 82.0159 13.5099 81.5831 13.2253C81.1503 12.9249 80.605 12.7747 79.9471 12.7747C79.2546 12.7747 78.7006 12.9249 78.2851 13.2253C77.8697 13.5257 77.5667 13.9289 77.3763 14.4348C77.1858 14.9249 77.0906 15.4704 77.0906 16.0712V21.668H73.4031V15.5257C73.4031 14.4348 73.6368 13.4388 74.1042 12.5376C74.5717 11.6206 75.2642 10.8854 76.1817 10.332C77.1166 9.77867 78.2765 9.50199 79.6615 9.50199C80.7695 9.50199 81.7216 9.69172 82.518 10.0712C83.3317 10.4348 83.9549 10.9486 84.3877 11.6127C84.8378 12.2609 85.0715 13.0198 85.0889 13.8893H84.2579C84.2752 13.0198 84.5175 12.2609 84.985 11.6127C85.4524 10.9486 86.0843 10.4348 86.8807 10.0712C87.677 9.69172 88.5859 9.50199 89.6073 9.50199Z" fill="white"/>
<path d="M64.6 21.9763C63.267 21.9763 62.0638 21.7154 60.9904 21.1936C59.9344 20.6561 59.1034 19.9209 58.4975 18.9881C57.8915 18.0395 57.5886 16.9407 57.5886 15.6917C57.5886 14.5691 57.8656 13.5415 58.4196 12.6087C58.9909 11.6601 59.7786 10.9091 60.7827 10.3557C61.7868 9.78654 62.9467 9.50195 64.2624 9.50195C65.6301 9.50195 66.79 9.77863 67.7422 10.332C68.6944 10.8695 69.4215 11.5889 69.9235 12.4901C70.4429 13.3913 70.7026 14.3794 70.7026 15.4545V16.4506H60.523L61.0943 15.6205C61.0597 16.2846 61.1809 16.8774 61.4579 17.3992C61.7522 17.9209 62.159 18.332 62.6784 18.6324C63.2151 18.917 63.847 19.0593 64.5741 19.0593C65.2666 19.0593 65.8898 18.9091 66.4438 18.6087C67.0151 18.3083 67.4479 17.8893 67.7422 17.3518L70.5728 18.6561C70.0188 19.7154 69.2224 20.5375 68.1837 21.1225C67.1622 21.6917 65.9677 21.9763 64.6 21.9763ZM61.3021 14.577H67.0411C66.9891 14.166 66.8333 13.8023 66.5736 13.4861C66.3313 13.1541 66.011 12.9012 65.6128 12.7272C65.2146 12.5375 64.7558 12.4427 64.2365 12.4427C63.6998 12.4427 63.2237 12.5375 62.8082 12.7272C62.41 12.917 62.0811 13.1778 61.8214 13.5099C61.5791 13.8261 61.4059 14.1818 61.3021 14.577ZM68.9627 4.73516V7.29642H59.5622V4.73516H68.9627Z" fill="white"/>
<path d="M48.0629 22C46.7818 22 45.5873 21.7866 44.4793 21.3597C43.3886 20.9328 42.4278 20.3399 41.5968 19.581C40.7832 18.8221 40.1426 17.9447 39.6752 16.9486C39.2251 15.9368 39 14.8538 39 13.6996C39 12.5455 39.2251 11.4704 39.6752 10.4743C40.1253 9.46245 40.7572 8.58498 41.5709 7.8419C42.4019 7.08301 43.3713 6.49012 44.4793 6.06324C45.5873 5.63637 46.7818 5.42293 48.0629 5.42293C49.0497 5.42293 50.0192 5.57313 50.9714 5.87352C51.9236 6.17392 52.7719 6.6166 53.5163 7.20158C54.278 7.77075 54.8753 8.49012 55.3081 9.35968L52.2179 10.9486C51.9236 10.4743 51.5687 10.0711 51.1532 9.73913C50.755 9.39131 50.2876 9.13044 49.7509 8.95652C49.2142 8.7668 48.5996 8.67194 47.9071 8.67194C47.1627 8.67194 46.4875 8.80633 45.8816 9.0751C45.2757 9.32806 44.7477 9.6838 44.2975 10.1423C43.8474 10.585 43.5012 11.1146 43.2588 11.7312C43.0164 12.3478 42.8952 13.0198 42.8952 13.747C42.8952 14.4901 43.0164 15.1779 43.2588 15.8103C43.5185 16.4269 43.8734 16.9644 44.3235 17.4229C44.7736 17.8814 45.319 18.2372 45.9595 18.4901C46.6001 18.7273 47.3012 18.8458 48.0629 18.8458C48.6342 18.8458 49.1536 18.7984 49.621 18.7036C50.0885 18.6087 50.504 18.4822 50.8675 18.3241C51.2484 18.1502 51.5687 17.9368 51.8284 17.6838L51.8024 14.1502H55.4899V18.8458C55.0744 19.4308 54.5031 19.9605 53.776 20.4348C53.0489 20.9091 52.2006 21.2885 51.2311 21.5731C50.2616 21.8577 49.2056 22 48.0629 22Z" fill="white"/>
<path fill-rule="evenodd" clip-rule="evenodd" d="M16.0739 26C14.1642 26 12.3772 25.6604 10.7131 24.9811C9.07621 24.3019 7.6303 23.3711 6.37536 22.1887C5.12043 20.9811 4.1383 19.5849 3.42899 18C3.18807 17.4402 2.98971 16.8678 2.83389 16.2828H1.33663C0.598431 16.2828 0 15.6949 0 14.9697C0 14.2445 0.598431 13.6566 1.33663 13.6566H2.42434C2.41207 13.4207 2.40594 13.1829 2.40594 12.9434C2.40594 12.5636 2.4218 12.1886 2.45352 11.8182H1.33663C0.598431 11.8182 0 11.2303 0 10.5051C0 9.77983 0.598431 9.19192 1.33663 9.19192H2.96847C3.09919 8.77531 3.2527 8.36543 3.42899 7.96226C4.1383 6.40252 5.10679 5.03145 6.33444 3.84906C7.58938 2.64151 9.04893 1.69811 10.7131 1.01887C12.3772 0.339623 14.1642 0 16.0739 0C17.5198 0 18.9247 0.213837 20.2888 0.64151C21.6802 1.06918 22.9351 1.69811 24.0536 2.5283C24.8586 3.09388 25.5626 3.76499 26.1656 4.54166C26.5904 5.08873 26.37 5.8585 25.7561 6.18963C25.1709 6.50523 24.4443 6.30277 24.0247 5.79273C23.5585 5.22603 23.0226 4.72908 22.4167 4.30189C21.4892 3.6478 20.4661 3.15723 19.3476 2.83019C18.2564 2.47799 17.1378 2.30189 15.992 2.30189C14.4643 2.30189 13.032 2.57862 11.6952 3.13208C10.3857 3.68553 9.2399 4.45283 8.25777 5.43396C7.27565 6.41509 6.49813 7.55975 5.92522 8.86792C5.87956 8.97531 5.8358 9.0833 5.79396 9.19192H25.6634C26.4016 9.19192 27 9.77983 27 10.5051C27 11.2303 26.4016 11.8182 25.6634 11.8182H5.16648C5.12669 12.1994 5.10679 12.5871 5.10679 12.9811C5.10679 13.2083 5.11318 13.4335 5.12596 13.6566H25.6634C26.4016 13.6566 27 14.2445 27 14.9697V20.2356C27 20.9388 26.7722 21.6335 26.2667 22.1312C25.782 22.6083 25.208 23.0803 24.5447 23.5472C23.508 24.2516 22.2667 24.8428 20.8208 25.3208C19.4022 25.7736 17.8199 26 16.0739 26ZM5.92522 17.1698C5.80373 16.8785 5.69576 16.5829 5.60132 16.2828H24.4219V19.3348C24.4219 20.0581 24.1826 20.7783 23.6129 21.2365C23.2925 21.4941 22.9211 21.7486 22.4986 22C21.6802 22.5031 20.7117 22.9182 19.5931 23.2453C18.5019 23.5472 17.3288 23.6981 16.0739 23.6981C14.5188 23.6981 13.0729 23.4214 11.7361 22.8679C10.3993 22.3145 9.2399 21.5472 8.25777 20.566C7.27565 19.5849 6.49813 18.4528 5.92522 17.1698Z" fill="url(#paint0_linear_631_4203)"/>
<defs>
<linearGradient id="paint0_linear_631_4203" x1="21.6535" y1="5.64647" x2="10.9643" y2="22.3653" gradientUnits="userSpaceOnUse">
<stop stop-color="#10F9F5"/>
<stop offset="1" stop-color="#FF007E"/>
</linearGradient>
</defs>
</svg>
