<svg width="27" height="26" viewBox="0 0 27 26" fill="none" xmlns="http://www.w3.org/2000/svg">
<path fill-rule="evenodd" clip-rule="evenodd" d="M16.0739 26C14.1642 26 12.3772 25.6604 10.7131 24.9811C9.07621 24.3019 7.6303 23.3711 6.37536 22.1887C5.12043 20.9811 4.1383 19.5849 3.42899 18C3.18807 17.4402 2.98971 16.8678 2.83389 16.2828H1.33663C0.598431 16.2828 0 15.6949 0 14.9697C0 14.2445 0.598431 13.6566 1.33663 13.6566H2.42434C2.41207 13.4207 2.40594 13.1829 2.40594 12.9434C2.40594 12.5636 2.4218 12.1886 2.45352 11.8182H1.33663C0.598431 11.8182 0 11.2303 0 10.5051C0 9.77983 0.598431 9.19192 1.33663 9.19192H2.96847C3.09919 8.77531 3.2527 8.36543 3.42899 7.96226C4.1383 6.40252 5.10679 5.03145 6.33444 3.84906C7.58938 2.64151 9.04893 1.69811 10.7131 1.01887C12.3772 0.339623 14.1642 0 16.0739 0C17.5198 0 18.9247 0.213837 20.2888 0.64151C21.6802 1.06918 22.9351 1.69811 24.0536 2.5283C24.8586 3.09388 25.5626 3.76499 26.1656 4.54166C26.5904 5.08873 26.37 5.8585 25.7561 6.18963C25.1709 6.50523 24.4443 6.30277 24.0247 5.79273C23.5585 5.22603 23.0226 4.72908 22.4167 4.30189C21.4892 3.6478 20.4661 3.15723 19.3476 2.83019C18.2564 2.47799 17.1378 2.30189 15.992 2.30189C14.4643 2.30189 13.032 2.57862 11.6952 3.13208C10.3857 3.68553 9.2399 4.45283 8.25777 5.43396C7.27565 6.41509 6.49813 7.55975 5.92522 8.86792C5.87956 8.97531 5.8358 9.0833 5.79396 9.19192H25.6634C26.4016 9.19192 27 9.77983 27 10.5051C27 11.2303 26.4016 11.8182 25.6634 11.8182H5.16648C5.12669 12.1994 5.10679 12.5871 5.10679 12.9811C5.10679 13.2083 5.11318 13.4335 5.12596 13.6566H25.6634C26.4016 13.6566 27 14.2445 27 14.9697V20.2356C27 20.9388 26.7722 21.6335 26.2667 22.1312C25.782 22.6083 25.208 23.0803 24.5447 23.5472C23.508 24.2516 22.2667 24.8428 20.8208 25.3208C19.4022 25.7736 17.8199 26 16.0739 26ZM5.92522 17.1698C5.80373 16.8785 5.69576 16.5829 5.60132 16.2828H24.4219V19.3348C24.4219 20.0581 24.1826 20.7783 23.6129 21.2365C23.2925 21.4941 22.9211 21.7486 22.4986 22C21.6802 22.5031 20.7117 22.9182 19.5931 23.2453C18.5019 23.5472 17.3288 23.6981 16.0739 23.6981C14.5188 23.6981 13.0729 23.4214 11.7361 22.8679C10.3993 22.3145 9.2399 21.5472 8.25777 20.566C7.27565 19.5849 6.49813 18.4528 5.92522 17.1698Z" fill="url(#paint0_linear_2001_474)"/>
<defs>
<linearGradient id="paint0_linear_2001_474" x1="21.6535" y1="5.64647" x2="10.9643" y2="22.3653" gradientUnits="userSpaceOnUse">
<stop stop-color="#10F9F5"/>
<stop offset="1" stop-color="#FF007E"/>
</linearGradient>
</defs>
</svg>
